<svg width="10" height="11" viewBox="0 0 10 11" fill="none" xmlns="http://www.w3.org/2000/svg">
<path fill-rule="evenodd" clip-rule="evenodd" d="M9.5 0.20813V0.791921V3.12525V6.46901C9.81118 6.82158 10 7.2847 10 7.79192C10 8.89649 9.10457 9.79192 8 9.79192C6.89543 9.79192 6 8.89649 6 7.79192C6 6.68735 6.89543 5.79192 8 5.79192C8.17265 5.79192 8.34019 5.8138 8.5 5.85493V3.70905L3.5 4.48682V7.46901C3.81118 7.82158 4 8.2847 4 8.79192C4 9.89649 3.10457 10.7919 2 10.7919C0.895431 10.7919 0 9.89649 0 8.79192C0 7.68735 0.895431 6.79192 2 6.79192C2.17265 6.79192 2.34019 6.8138 2.5 6.85493V4.05859V1.72525V1.29702L2.92315 1.2312L8.92315 0.297863L9.5 0.20813ZM3.5 3.4748L8.5 2.69702V1.37571L3.5 2.15349V3.4748Z" fill="#262626"/>
</svg>
