<svg width="9" height="13" viewBox="0 0 9 13" fill="none" xmlns="http://www.w3.org/2000/svg">
<path fill-rule="evenodd" clip-rule="evenodd" d="M3.375 1.4375C3.375 0.816179 3.87868 0.3125 4.5 0.3125C5.12132 0.3125 5.625 0.81618 5.625 1.4375V11.5625C5.625 12.1838 5.12132 12.6875 4.5 12.6875C3.87868 12.6875 3.375 12.1838 3.375 11.5625V1.4375ZM0 3.6875C0 3.06618 0.50368 2.5625 1.125 2.5625C1.74632 2.5625 2.25 3.06618 2.25 3.6875V9.3125C2.25 9.93382 1.74632 10.4375 1.125 10.4375C0.50368 10.4375 0 9.93382 0 9.3125V3.6875ZM7.875 2.5625C7.25368 2.5625 6.75 3.06618 6.75 3.6875V9.3125C6.75 9.93382 7.25368 10.4375 7.875 10.4375C8.49632 10.4375 9 9.93382 9 9.3125V3.6875C9 3.06618 8.49632 2.5625 7.875 2.5625Z" fill="#262626"/>
</svg>
